<svg width="45" height="45" viewBox="0 0 45 45" fill="none" xmlns="http://www.w3.org/2000/svg">
<g id="Group">
<path id="Vector" d="M16.875 44.9999C17.3723 44.9999 17.8492 45.237 18.2008 45.6589C18.5524 46.0809 18.75 46.6532 18.75 47.2499C18.75 47.8467 18.5524 48.419 18.2008 48.8409C17.8492 49.2629 17.3723 49.4999 16.875 49.4999C16.3777 49.4999 15.9008 49.2629 15.5492 48.8409C15.1975 48.419 15 47.8467 15 47.2499C15 46.6532 15.1975 46.0809 15.5492 45.6589C15.9008 45.237 16.3777 44.9999 16.875 44.9999ZM30 44.9999C30.4973 44.9999 30.9742 45.237 31.3258 45.6589C31.6774 46.0809 31.875 46.6532 31.875 47.2499C31.875 47.8467 31.6774 48.419 31.3258 48.8409C30.9742 49.2629 30.4973 49.4999 30 49.4999C29.5027 49.4999 29.0258 49.2629 28.6742 48.8409C28.3225 48.419 28.125 47.8467 28.125 47.2499C28.125 46.6532 28.3225 46.0809 28.6742 45.6589C29.0258 45.237 29.5027 44.9999 30 44.9999ZM6.55311 5.91969L6.74999 6.07719L9.95249 8.95719C10.4975 9.4479 10.9208 10.1075 11.1769 10.8652L11.2894 11.2499H35.3756C35.8839 11.2498 36.387 11.3736 36.8542 11.614C37.3214 11.8544 37.743 12.2062 38.0934 12.6481C38.4437 13.09 38.7156 13.6128 38.8924 14.1847C39.0692 14.7566 39.1473 15.3657 39.1219 15.9749L39.0975 16.3079L38.2406 24.5317C37.9835 27.0065 37.0483 29.3087 35.5821 31.0762C34.1159 32.8438 32.2018 33.9767 30.1406 34.2967L29.7169 34.3484L16.005 35.7209L16.4925 38.2499H32.8125C33.2904 38.2506 33.75 38.4702 34.0975 38.8638C34.4451 39.2575 34.6542 39.7956 34.6822 40.3681C34.7102 40.9406 34.555 41.5043 34.2482 41.9441C33.9415 42.3838 33.5064 42.6665 33.0319 42.7342L32.8125 42.7499H16.4925C15.6967 42.7501 14.9216 42.4465 14.2791 41.8831C13.6367 41.3196 13.1602 40.5255 12.9187 39.6157L12.8381 39.2624L7.70061 12.5549L4.49999 9.67494C4.13417 9.34591 3.88113 8.86785 3.78845 8.33064C3.69577 7.79343 3.76984 7.2341 3.99673 6.75783C4.22363 6.28157 4.5877 5.92118 5.0205 5.74446C5.45329 5.56773 5.92498 5.58684 6.34686 5.79819L6.55311 5.91969ZM35.3756 15.7499H12.1631L15.1537 31.2884L29.4037 29.8642C30.6898 29.7358 31.9 29.0806 32.8313 28.0085C33.7626 26.9364 34.3584 25.5126 34.5187 23.9759L35.3756 15.7499Z" fill="black" fill-opacity="0.5"/>
</g>
</svg>
