<svg width="40" height="51" viewBox="0 0 40 51" fill="none" xmlns="http://www.w3.org/2000/svg">
<g id="fluent:list-16-regular">
<path id="Vector" d="M5 11.1562C5 10.7336 5.1317 10.3282 5.36612 10.0293C5.60054 9.73041 5.91848 9.5625 6.25 9.5625H26.25C26.5815 9.5625 26.8995 9.73041 27.1339 10.0293C27.3683 10.3282 27.5 10.7336 27.5 11.1562C27.5 11.5789 27.3683 11.9843 27.1339 12.2832C26.8995 12.5821 26.5815 12.75 26.25 12.75H6.25C5.91848 12.75 5.60054 12.5821 5.36612 12.2832C5.1317 11.9843 5 11.5789 5 11.1562ZM5 36.6562C5 36.2336 5.1317 35.8282 5.36612 35.5293C5.60054 35.2304 5.91848 35.0625 6.25 35.0625H23.75C24.0815 35.0625 24.3995 35.2304 24.6339 35.5293C24.8683 35.8282 25 36.2336 25 36.6562C25 37.0789 24.8683 37.4843 24.6339 37.7832C24.3995 38.0821 24.0815 38.25 23.75 38.25H6.25C5.91848 38.25 5.60054 38.0821 5.36612 37.7832C5.1317 37.4843 5 37.0789 5 36.6562ZM6.25 22.3125C5.91848 22.3125 5.60054 22.4804 5.36612 22.7793C5.1317 23.0782 5 23.4836 5 23.9062C5 24.3289 5.1317 24.7343 5.36612 25.0332C5.60054 25.3321 5.91848 25.5 6.25 25.5H33.75C34.0815 25.5 34.3995 25.3321 34.6339 25.0332C34.8683 24.7343 35 24.3289 35 23.9062C35 23.4836 34.8683 23.0782 34.6339 22.7793C34.3995 22.4804 34.0815 22.3125 33.75 22.3125H6.25Z" fill="black" fill-opacity="0.5"/>
</g>
</svg>
