<svg width="33" height="33" viewBox="0 0 33 33" fill="none" xmlns="http://www.w3.org/2000/svg">
<path id="Vector" d="M32.9167 16.484C32.9167 7.66 25.7487 0.5 16.9167 0.5C8.08475 0.5 0.916748 7.66 0.916748 16.484C0.916748 21.344 3.12475 25.724 6.58075 28.664C6.61275 28.696 6.64475 28.696 6.64475 28.728C6.93275 28.952 7.22075 29.176 7.54075 29.4C7.70075 29.496 7.82875 29.622 7.98875 29.75C10.6329 31.5427 13.7542 32.5007 16.9487 32.5C20.1433 32.5007 23.2646 31.5427 25.9087 29.75C26.0687 29.654 26.1967 29.528 26.3567 29.43C26.6447 29.208 26.9647 28.984 27.2527 28.76C27.2847 28.728 27.3167 28.728 27.3167 28.696C30.7087 25.722 32.9167 21.344 32.9167 16.484ZM16.9167 30.486C13.9087 30.486 11.1567 29.526 8.88475 27.928C8.91675 27.672 8.98075 27.418 9.04475 27.162C9.23542 26.4682 9.51508 25.802 9.87675 25.18C10.2287 24.572 10.6447 24.028 11.1567 23.548C11.6367 23.068 12.2127 22.622 12.7887 22.27C13.3967 21.918 14.0367 21.662 14.7407 21.47C15.4502 21.2788 16.182 21.1826 16.9167 21.184C19.098 21.1686 21.1992 22.0053 22.7727 23.516C23.5087 24.252 24.0847 25.116 24.5007 26.106C24.7247 26.682 24.8847 27.29 24.9807 27.928C22.6191 29.5883 19.8036 30.4814 16.9167 30.486ZM12.0207 15.686C11.7388 15.0404 11.597 14.3424 11.6047 13.638C11.6047 12.936 11.7327 12.232 12.0207 11.592C12.3087 10.952 12.6927 10.378 13.1727 9.898C13.6527 9.418 14.2287 9.036 14.8687 8.748C15.5087 8.46 16.2127 8.332 16.9167 8.332C17.6527 8.332 18.3247 8.46 18.9647 8.748C19.6047 9.036 20.1807 9.42 20.6607 9.898C21.1407 10.378 21.5247 10.954 21.8127 11.592C22.1007 12.232 22.2287 12.936 22.2287 13.638C22.2287 14.374 22.1007 15.046 21.8127 15.684C21.5348 16.3145 21.1444 16.8892 20.6607 17.38C20.1698 17.863 19.5951 18.2527 18.9647 18.53C17.6424 19.0734 16.1591 19.0734 14.8367 18.53C14.2064 18.2527 13.6317 17.863 13.1407 17.38C12.6564 16.8964 12.2753 16.3214 12.0207 15.686ZM26.8687 26.298C26.8687 26.234 26.8367 26.202 26.8367 26.138C26.522 25.1368 26.0581 24.1888 25.4607 23.326C24.8628 22.4568 24.1279 21.6902 23.2847 21.056C22.6408 20.5716 21.9428 20.1635 21.2047 19.84C21.5405 19.6185 21.8516 19.3617 22.1327 19.074C22.6098 18.603 23.0288 18.0766 23.3807 17.506C24.0895 16.3416 24.4555 15.001 24.4367 13.638C24.4466 12.629 24.2507 11.6286 23.8607 10.698C23.4758 9.80128 22.9217 8.98711 22.2287 8.3C21.5368 7.62006 20.7225 7.07718 19.8287 6.7C18.8966 6.31079 17.8949 6.11549 16.8847 6.126C15.8745 6.11612 14.8728 6.3121 13.9407 6.702C13.0393 7.07837 12.223 7.63277 11.5407 8.332C10.8608 9.02317 10.3179 9.83684 9.94075 10.73C9.55085 11.6606 9.35485 12.661 9.36475 13.67C9.36475 14.374 9.46075 15.046 9.65275 15.684C9.84475 16.356 10.1007 16.964 10.4527 17.538C10.7727 18.114 11.2207 18.626 11.7007 19.106C11.9887 19.394 12.3087 19.648 12.6607 19.872C11.9204 20.2041 11.2222 20.6231 10.5807 21.12C9.74875 21.76 9.01275 22.526 8.40475 23.358C7.80127 24.2173 7.33691 25.1662 7.02875 26.17C6.99675 26.234 6.99675 26.298 6.99675 26.33C4.46875 23.772 2.90075 20.32 2.90075 16.484C2.90075 8.78 9.20475 2.482 16.9167 2.482C24.6287 2.482 30.9327 8.78 30.9327 16.484C30.9286 20.1639 29.4674 23.6925 26.8687 26.298Z" fill="#F8F8F8" fill-opacity="0.5"/>
</svg>
