<svg width="51" height="50" viewBox="0 0 51 50" fill="none" xmlns="http://www.w3.org/2000/svg">
<g id="galaSettings0">
<path id="galaSettings1" d="M8.75 1.375H42.5C46.2395 1.375 49.25 4.3855 49.25 8.125V41.875C49.25 45.6145 46.2395 48.625 42.5 48.625H8.75C5.0105 48.625 2 45.6145 2 41.875V8.125C2 4.3855 5.0105 1.375 8.75 1.375Z" stroke="black" stroke-opacity="0.5" stroke-width="2.5" stroke-linecap="round" stroke-linejoin="round"/>
<path id="galaSettings2" d="M12.125 11.5H15.5" stroke="black" stroke-opacity="0.5" stroke-width="2.5" stroke-linecap="round" stroke-linejoin="round"/>
<path id="galaSettings3" d="M18.875 14.875C17.9799 14.875 17.1214 14.5194 16.4885 13.8865C15.8556 13.2536 15.5 12.3951 15.5 11.5C15.5 10.6049 15.8556 9.74645 16.4885 9.11351C17.1214 8.48058 17.9799 8.125 18.875 8.125C19.3182 8.125 19.7571 8.2123 20.1666 8.38191C20.576 8.55152 20.9481 8.80012 21.2615 9.11351C21.5749 9.42691 21.8235 9.79897 21.9931 10.2084C22.1627 10.6179 22.25 11.0568 22.25 11.5C22.25 11.9432 22.1627 12.3821 21.9931 12.7916C21.8235 13.201 21.5749 13.5731 21.2615 13.8865C20.9481 14.1999 20.576 14.4485 20.1666 14.6181C19.7571 14.7877 19.3182 14.875 18.875 14.875Z" stroke="black" stroke-opacity="0.5" stroke-width="2.5" stroke-linecap="round" stroke-linejoin="round"/>
<path id="galaSettings4" d="M22.25 11.5001L39.125 11.5" stroke="black" stroke-opacity="0.5" stroke-width="2.5" stroke-linecap="round" stroke-linejoin="round"/>
<path id="galaSettings5" d="M39.125 25H35.75" stroke="black" stroke-opacity="0.5" stroke-width="2.5" stroke-linecap="round" stroke-linejoin="round"/>
<path id="galaSettings6" d="M32.375 28.375C33.2701 28.375 34.1285 28.0194 34.7615 27.3865C35.3944 26.7535 35.75 25.8951 35.75 25C35.75 24.1049 35.3944 23.2465 34.7615 22.6135C34.1285 21.9806 33.2701 21.625 32.375 21.625C31.4799 21.625 30.6215 21.9806 29.9885 22.6135C29.3556 23.2465 29 24.1049 29 25C29 25.8951 29.3556 26.7535 29.9885 27.3865C30.6215 28.0194 31.4799 28.375 32.375 28.375Z" stroke="black" stroke-opacity="0.5" stroke-width="2.5" stroke-linecap="round" stroke-linejoin="round"/>
<path id="galaSettings7" d="M29 25.0001L12.125 25" stroke="black" stroke-opacity="0.5" stroke-width="2.5" stroke-linecap="round" stroke-linejoin="round"/>
<path id="galaSettings8" d="M12.125 38.5H15.5" stroke="black" stroke-opacity="0.5" stroke-width="2.5" stroke-linecap="round" stroke-linejoin="round"/>
<path id="galaSettings9" d="M18.875 41.875C17.9799 41.875 17.1214 41.5194 16.4885 40.8865C15.8556 40.2535 15.5 39.3951 15.5 38.5C15.5 37.6049 15.8556 36.7465 16.4885 36.1135C17.1214 35.4806 17.9799 35.125 18.875 35.125C19.3182 35.125 19.7571 35.2123 20.1666 35.3819C20.576 35.5515 20.9481 35.8001 21.2615 36.1135C21.5749 36.4269 21.8235 36.799 21.9931 37.2084C22.1627 37.6179 22.25 38.0568 22.25 38.5C22.25 38.9432 22.1627 39.3821 21.9931 39.7916C21.8235 40.201 21.5749 40.5731 21.2615 40.8865C20.9481 41.1999 20.576 41.4485 20.1666 41.6181C19.7571 41.7877 19.3182 41.875 18.875 41.875Z" stroke="black" stroke-opacity="0.5" stroke-width="2.5" stroke-linecap="round" stroke-linejoin="round"/>
<path id="galaSettingsa" d="M22.25 38.5001L39.125 38.5" stroke="black" stroke-opacity="0.5" stroke-width="2.5" stroke-linecap="round" stroke-linejoin="round"/>
</g>
</svg>
